<svg id="480aac76-0721-4de2-926f-bf8bd242489a" data-name="Layer 1" xmlns="http://www.w3.org/2000/svg" viewBox="0 0 160.6091 160.6091"><title>Logo_screen_academy</title><circle id="e1e34477-e2fc-4912-b757-2f8717ec9733" data-name="&lt;Path&gt;" cx="80.3046" cy="80.3046" r="80.3046" style="fill:#231f20"/><path id="7404f7e1-fef2-41bb-a60d-d776c2b97ad2" data-name="&lt;Path&gt;" d="M7472.3142,6996.4829a7.5119,7.5119,0,1,0,15.0236,0V6974.14l-15.0236,16.883Z" transform="translate(-7436.3909 -6898.6277)" style="fill:#fff"/><path id="fa831bc8-fab8-4b73-b8f4-20ec2ef27dfb" data-name="&lt;Path&gt;" d="M7461.937,6949.2427a7.621,7.621,0,0,0,0,15.2413h10.3772v16.4921l28.2384-31.7334Z" transform="translate(-7436.3909 -6898.6277)" style="fill:#fff"/><path id="a4d4b5fe-bfd2-46b1-9494-e949f7739432" data-name="&lt;Path&gt;" d="M7544.6017,6956.8468c0-.0225-.0387-.0446-.0388-.067-.0006-.0662-.04-.1323-.0421-.1984-.0022-.0624-.0044-.1248-.0081-.1868-.0031-.0539-.0078-.1077-.0122-.1616-.0059-.0738-.0119-.1475-.02-.2207-.0042-.0374-.01-.0746-.0142-.1119-.0111-.0884-.0226-.1765-.0367-.2638l-.01-.0555a7.4906,7.4906,0,0,0-.4945-1.6929c-.0168-.0392-.0355-.0778-.0528-.1168-.0312-.07-.0618-.14-.095-.2086-.0394-.0816-.0816-.1619-.1242-.2423-.0134-.0255-.0258-.0516-.04-.077q-.0827-.1524-.1734-.3015l-.0061-.0107q-.0921-.1515-.1918-.2991l-.0047-.0072c-.0605-.09-.1239-.178-.1887-.2656l-.0249-.0345c-.0563-.0751-.1152-.1487-.1746-.222-.0191-.0238-.0377-.0481-.0573-.0715-.05-.0609-.1032-.1206-.1559-.18-.0312-.0351-.0618-.0708-.0936-.1054-.0444-.0483-.09-.0956-.1362-.143-.0433-.0448-.0865-.09-.1309-.1334-.0392-.0385-.0794-.0762-.12-.114-.0534-.0505-.1072-.1005-.1622-.1494-.0147-.0132-.0286-.0271-.0435-.04h0c-.0224-.02-.0459-.0377-.0686-.0571q-.0878-.0751-.1778-.1479-.0585-.0469-.1178-.0925-.0879-.0678-.1777-.1331c-.0429-.0312-.0862-.062-.13-.0923q-.0858-.0592-.1729-.1163c-.0475-.0311-.0951-.0618-.143-.0917-.0555-.0346-.1116-.068-.1679-.1012-.0515-.03-.1029-.06-.1548-.0889-.0548-.0305-.11-.06-.1661-.089-.054-.0283-.108-.0564-.1625-.0833s-.1121-.0538-.1687-.08c-.055-.0254-.11-.0507-.1653-.0747-.0583-.0253-.1173-.0493-.1764-.0731-.0544-.0219-.1087-.0438-.1635-.0645-.0615-.0231-.1236-.0448-.1857-.0663-.0533-.0185-.1066-.037-.16-.0542-.0645-.0208-.13-.04-.1946-.0591-.0526-.0153-.1052-.0307-.1581-.0448-.0658-.0177-.132-.0339-.1985-.05-.0538-.0128-.1075-.0256-.1614-.0372-.0652-.0141-.1308-.0269-.1968-.0394-.0567-.0106-.1134-.0209-.17-.03-.0629-.01-.1261-.02-.19-.0285q-.0921-.0128-.1845-.0234-.0891-.01-.1788-.0181c-.0668-.006-.1335-.011-.2-.0152-.0562-.0036-.1127-.0067-.1694-.009-.07-.0029-.14-.0044-.21-.0053-.0339,0-.0675-.0026-.1016-.0026-.0225,0-.0448.0015-.0672.0017-.0663.0006-.1325.0027-.1987.005-.0621.0022-.1242.0043-.1861.008-.0544.0033-.1087.0079-.163.0124-.0732.0059-.1465.0118-.2191.02-.0381.0042-.0762.01-.1144.0145-.0875.011-.1748.0224-.2614.0364l-.0584.01c-.1036.0175-.2065.0363-.3084.0579l-.0058.0014a7.4986,7.4986,0,0,0-1.0416.3018l-.021.0083c-.105.0393-.2092.08-.3122.1242-.0488.0206-.0967.0438-.1452.0656-.06.0271-.1208.0533-.18.082-.0916.0441-.1819.0912-.2718.1392-.0156.0083-.0317.0158-.0471.0242a7.5013,7.5013,0,0,0-.8988.5751l-.02.0141c-.08.06-.1577.1218-.2354.1849-.0191.0156-.0387.0306-.0579.0463-.0646.0536-.1278.1095-.1911.1656-.0315.0279-.0634.0553-.0943.0836-.0517.0475-.1022.0967-.1528.1458-.0413.04-.0827.08-.1231.1208s-.0824.0856-.1231.1289c-.0473.05-.0942.1009-.14.1525-.0142.016-.0292.031-.0434.0472l-11.958,13.4379-11.7025-13.1509c-.1158-.146-.2387-.286-.3647-.423l-13.1839,14.8156v29.2027a7.621,7.621,0,0,0,15.2414,0v-19.0484l4.2853,4.85a7.4989,7.4989,0,0,0,5.74,2.5751,7.4214,7.4214,0,0,0,4.8937-1.77l20.3541-22.8733Z" transform="translate(-7436.3909 -6898.6277)" style="fill:#fff"/><path id="2cfd04d1-5227-41c3-a67f-f5afa70af1e0" data-name="&lt;Path&gt;" d="M7544.6017,6995.757v-26.22l-15.2413,17.1278v9.0927a7.6239,7.6239,0,0,0,12.712,5.6031l1.165-1.3092A7.4383,7.4383,0,0,0,7544.6017,6995.757Z" transform="translate(-7436.3909 -6898.6277)" style="fill:#fff"/><path id="db71049d-3048-411a-b2b4-d7ecb8d87bfb" data-name="&lt;Path&gt;" d="M7552.114,7000.1221a7.6265,7.6265,0,0,0,13.8256-4.3651v-11.1717Z" transform="translate(-7436.3909 -6898.6277)" style="fill:#fff"/><path id="4a95ac7c-6561-4d38-92a0-8b124da5dbac" data-name="&lt;Path&gt;" d="M7550.6983,6991.6666l15.2413-17.1278v-17.692a7.5575,7.5575,0,0,0-4.0971-6.6849l-11.1442,12.5235Z" transform="translate(-7436.3909 -6898.6277)" style="fill:#fff"/><path id="d852e747-6884-4e32-b110-d85dfa13ce4f" data-name="&lt;Path&gt;" d="M7543.2374,7000.0509l-1.165,1.3092A7.6743,7.6743,0,0,0,7543.2374,7000.0509Z" transform="translate(-7436.3909 -6898.6277)"/><path d="M7479.89,7017.6218c0-3.2269,2.0271-5.3781,5.0471-5.3781a4.7058,4.7058,0,0,1,3.682,1.9443V7012.45h1.6548v10.3425h-1.6548v-1.7376a4.706,4.706,0,0,1-3.682,1.9445C7481.917,7023,7479.89,7020.8486,7479.89,7017.6218Zm8.7291,0c0-2.3581-1.4066-3.93-3.5164-3.93-2.1306,0-3.5579,1.5722-3.5579,3.93s1.4273,3.93,3.5579,3.93C7487.2124,7021.5518,7488.619,7019.98,7488.619,7017.6218Z" transform="translate(-7436.3909 -6898.6277)" style="fill:#eec53e"/><path d="M7492.0524,7017.6218a5.0018,5.0018,0,0,1,5.1919-5.3781,4.9315,4.9315,0,0,1,5.0472,4.3024h-1.5721a3.408,3.408,0,0,0-3.4751-2.8546c-2.11,0-3.5371,1.5722-3.5371,3.93s1.4273,3.93,3.5371,3.93a3.4628,3.4628,0,0,0,3.4958-2.9579h1.572a5.16,5.16,0,0,1-10.26-.9721Z" transform="translate(-7436.3909 -6898.6277)" style="fill:#eec53e"/><path d="M7503.8012,7017.6218c0-3.2269,2.0271-5.3781,5.0472-5.3781a4.7059,4.7059,0,0,1,3.6819,1.9443V7012.45h1.6547v10.3425H7512.53v-1.7376a4.7061,4.7061,0,0,1-3.6819,1.9445C7505.8283,7023,7503.8012,7020.8486,7503.8012,7017.6218Zm8.7291,0c0-2.3581-1.4067-3.93-3.5165-3.93-2.13,0-3.5578,1.5722-3.5578,3.93s1.4273,3.93,3.5578,3.93C7511.1236,7021.5518,7512.53,7019.98,7512.53,7017.6218Z" transform="translate(-7436.3909 -6898.6277)" style="fill:#eec53e"/><path d="M7515.9636,7017.6218c0-3.2269,2.0685-5.3781,5.13-5.3781a4.7309,4.7309,0,0,1,3.7646,1.9649v-5.6056h1.6549v14.19h-1.6549v-1.7582a4.7311,4.7311,0,0,1-3.7646,1.9651C7518.0321,7023,7515.9636,7020.8486,7515.9636,7017.6218Zm8.8946,0c0-2.3581-1.448-3.93-3.5992-3.93a3.9417,3.9417,0,0,0,0,7.86C7523.41,7021.5518,7524.8582,7019.98,7524.8582,7017.6218Z" transform="translate(-7436.3909 -6898.6277)" style="fill:#eec53e"/><path d="M7528.4982,7017.6218a5.0019,5.0019,0,0,1,5.192-5.3781c3.1027,0,5.1918,2.2339,5.1918,5.5435l-.1654.1654h-8.5429a3.5284,3.5284,0,0,0,6.8261,1.3239h1.6547A5.1383,5.1383,0,0,1,7533.69,7023,5.0018,5.0018,0,0,1,7528.4982,7017.6218Zm8.6256-1.117a3.5021,3.5021,0,0,0-6.8674,0Z" transform="translate(-7436.3909 -6898.6277)" style="fill:#eec53e"/><path d="M7540.8675,7012.45h1.6547v1.1584a3.3408,3.3408,0,0,1,2.6477-1.3651,3.7987,3.7987,0,0,1,2.9373,1.572,3.9667,3.9667,0,0,1,3.1235-1.572c2.2754,0,3.7853,1.3651,3.7853,3.4129v7.1363h-1.6547v-6.9708a2.3025,2.3025,0,0,0-4.5922,0v6.9708h-1.6547v-6.9708a2.3025,2.3025,0,0,0-4.5922,0v6.9708h-1.6547Z" transform="translate(-7436.3909 -6898.6277)" style="fill:#eec53e"/><path d="M7560.0628,7022.1725l-3.93-9.7221h1.7582l3.02,7.5915,2.9786-7.5915h1.7788l-5.5849,14.19h-1.7789Z" transform="translate(-7436.3909 -6898.6277)" style="fill:#eec53e"/></svg>